<svg width="338" height="596" viewBox="0 0 338 596" fill="none" xmlns="http://www.w3.org/2000/svg">
<path d="M57.3738 551.583L57.3956 551.717L57.5191 551.772L74.3839 559.26L57.5191 566.748L57.3956 566.803L57.3738 566.937L52.9411 594.086L48.5085 566.937L48.4867 566.803L48.3632 566.748L31.4984 559.26L48.3632 551.772L48.4867 551.717L48.5085 551.583L52.9411 524.434L57.3738 551.583Z" stroke="black" stroke-width="0.5"/>
<path d="M18.4699 527.417L18.4913 527.55L18.614 527.605L30.2743 532.864L18.614 538.123L18.4913 538.178L18.4699 538.311L15.4412 557.153L12.4124 538.311L12.3911 538.178L12.2684 538.123L0.608101 532.864L12.2684 527.605L12.3911 527.55L12.4124 527.417L15.4412 508.575L18.4699 527.417Z" stroke="black" stroke-width="0.5"/>
<path d="M320.42 29.0146L320.441 29.1475L320.564 29.2028L337.391 36.7762L320.564 44.3497L320.441 44.405L320.42 44.5379L316 71.9803L311.58 44.5379L311.559 44.405L311.436 44.3497L294.609 36.7762L311.436 29.2028L311.559 29.1475L311.58 29.0146L316 1.57215L320.42 29.0146Z" stroke="black" stroke-width="0.5"/>
<path d="M307.087 125.405L307.108 125.538L307.231 125.593L315.391 129.266L307.231 132.939L307.108 132.994L307.087 133.127L305 146.082L302.913 133.127L302.892 132.994L302.769 132.939L294.609 129.266L302.769 125.593L302.892 125.538L302.913 125.405L305 112.45L307.087 125.405Z" stroke="black" stroke-width="0.5"/>
<path d="M267.754 62.2271L267.775 62.36L267.898 62.4153L293.392 73.9064L267.898 85.3975L267.775 85.4528L267.754 85.5857L261 127.576L254.246 85.5857L254.225 85.4528L254.102 85.3975L228.608 73.9064L254.102 62.4153L254.225 62.36L254.246 62.2271L261 20.2367L267.754 62.2271Z" stroke="black" stroke-width="0.5"/>
</svg>
