<svg width="1370" height="1080" viewBox="0 0 1370 1080" fill="none" xmlns="http://www.w3.org/2000/svg">
<path d="M370.42 638.885L370.02 638.898L369.47 621.006L220.341 625.588L220.89 643.479L220.49 643.492L218.804 588.618L219.204 588.605L219.754 606.497L368.884 601.915L367.935 571.03C367.693 563.167 366.397 556.803 364.047 551.94C361.63 547.079 358.381 543.377 354.301 540.834C350.154 538.293 345.367 536.606 339.939 535.773C334.444 534.941 328.531 534.622 322.201 534.817L322.189 534.417L367.168 533.035L370.42 638.885Z" fill="white"/>
<path d="M395.969 461.023C391.743 470.233 386.188 477.623 379.304 483.193C372.36 488.735 364.522 492.547 355.792 494.629C347.089 496.65 337.929 497.031 328.311 495.772C318.633 494.484 308.946 491.617 299.251 487.168C289.557 482.719 281.124 477.199 273.953 470.607C266.749 463.928 261.104 456.569 257.017 448.532C252.957 440.435 250.781 431.991 250.487 423.2C250.132 414.382 251.971 405.58 256.002 396.795C260.034 388.009 265.494 380.905 272.383 375.484C279.239 369.975 287.046 366.149 295.804 364.007C304.59 361.804 313.85 361.285 323.584 362.451C333.258 363.59 342.942 366.383 352.636 370.832C362.331 375.281 370.822 380.754 378.109 387.252C385.364 393.662 391.062 400.824 395.205 408.74C399.348 416.656 401.582 425.053 401.909 433.932C402.175 442.783 400.195 451.813 395.969 461.023ZM395.605 460.856C399.248 452.919 400.151 445.595 398.316 438.885C396.448 432.086 392.749 425.841 387.219 420.149C381.628 414.43 374.921 409.225 367.098 404.534C359.302 399.783 351.284 395.517 343.044 391.736C334.743 387.927 326.252 384.691 317.572 382.028C308.831 379.337 300.458 377.842 292.453 377.543C284.416 377.155 277.255 378.454 270.971 381.438C264.654 384.334 259.786 389.509 256.366 396.961C252.946 404.414 252.184 411.51 254.08 418.248C255.915 424.958 259.586 431.264 265.093 437.165C270.568 442.978 277.161 448.351 284.873 453.283C292.553 458.128 300.543 462.454 308.844 466.264C317.085 470.045 325.547 473.342 334.233 476.154C342.918 478.966 351.252 480.626 359.234 481.135C367.155 481.616 374.302 480.347 380.674 477.33C387.014 474.225 391.991 468.733 395.605 460.856Z" fill="white"/>
<path d="M429.914 329.319L429.681 328.994L481.392 291.968L481.625 292.293L429.914 329.319ZM398.813 223.185L530.663 316.463L542.208 308.197L542.441 308.522L495.283 342.287L495.05 341.962L512.856 329.213L407.121 250.936L444.396 378.231L464.153 364.084L464.386 364.41L428.611 390.025L428.378 389.7L444.071 378.464L398.488 223.418L398.813 223.185Z" fill="white"/>
<path d="M591.05 150.489C605.826 148.846 618.912 150.711 630.309 156.084C641.765 161.383 651.002 169.344 658.019 179.967C665.102 190.583 669.429 202.947 670.999 217.06C672.178 227.661 671.516 237.696 669.014 247.164C666.571 256.558 662.545 264.988 656.936 272.454C651.326 279.92 644.359 286.027 636.033 290.777C627.699 295.46 618.232 298.391 607.631 299.57L552.073 305.749L552.029 305.351L569.819 303.373L553.327 155.087L535.537 157.066L535.493 156.668L591.05 150.489ZM588.802 301.262L607.587 299.172C616.73 298.155 624.18 295.18 629.937 290.247C635.686 285.248 640.055 278.993 643.043 271.483C646.024 263.908 647.853 255.621 648.529 246.625C649.205 237.628 649.039 228.591 648.029 219.514C647.027 210.503 645.112 201.727 642.284 193.188C639.449 184.582 635.682 176.951 630.984 170.296C626.345 163.568 620.709 158.426 614.076 154.871C607.435 151.249 599.774 149.921 591.094 150.887L572.31 152.976L588.802 301.262Z" fill="white"/>
<path d="M692.48 298.167L692.587 297.782L713.685 303.652L753.675 159.911L732.577 154.041L732.684 153.656L795.306 171.078L795.198 171.463L772.077 165.03L732.087 308.771L755.208 315.204L755.101 315.589L692.48 298.167Z" fill="white"/>
<path d="M875.607 207.889L783.242 325.57L802.279 340.511L802.032 340.826L767.105 313.413L767.352 313.098L782.927 325.323L875.046 207.956L859.47 195.732L859.717 195.417L875.607 207.889ZM968.981 281.176L968.734 281.491L952.215 268.525L858.615 387.779L858.3 387.532L875.45 207.765L893.464 221.904L878.304 362.045L951.9 268.278L933.021 253.46L933.268 253.145L968.981 281.176Z" fill="white"/>
<path d="M966.586 461.967L987.181 511.885L986.811 512.038L982.234 500.945L960.233 510.022C956.777 509.861 952.641 509.188 947.825 508.002C943.034 506.877 938.061 504.962 932.906 502.257C927.839 499.588 923.013 495.845 918.43 491.029C913.847 486.213 910.004 480.046 906.902 472.527C901.614 459.709 900.177 447.573 902.591 436.12C905.067 424.641 910.701 414.348 919.492 405.24C928.283 396.133 939.55 388.744 953.293 383.074C963.584 378.828 973.698 376.422 983.633 375.857C993.569 375.292 1002.85 376.473 1011.49 379.4C1020.19 382.303 1027.88 386.881 1034.57 393.135C1041.26 399.389 1046.54 407.2 1050.41 416.568C1052.97 422.792 1054.28 429.104 1054.33 435.505C1054.37 441.905 1053.28 447.909 1051.05 453.516L1066.33 460.408L1066.48 460.778L1028.58 476.415L1028.43 476.045C1034.16 473.68 1038.93 470.379 1042.73 466.141C1046.54 461.903 1049.36 457.131 1051.21 451.825C1053.06 446.518 1053.9 441.018 1053.71 435.325C1053.59 429.607 1052.43 424.098 1050.25 418.798C1046.94 410.786 1042.07 404.828 1035.62 400.923C1029.27 397.055 1021.97 394.837 1013.73 394.27C1005.58 393.739 997.025 394.419 988.07 396.311C979.176 398.177 970.507 400.852 962.064 404.335C953.683 407.793 945.53 411.806 937.607 416.373C929.708 421.002 922.893 426.157 917.16 431.84C911.489 437.497 907.601 443.717 905.495 450.499C903.451 457.256 904.043 464.548 907.272 472.375C909.637 478.106 912.655 482.45 916.327 485.407C920.085 488.399 923.883 490.438 927.721 491.523C931.645 492.645 935.186 493.275 938.345 493.414C941.503 493.554 943.665 493.636 944.829 493.66L974.225 481.532L966.216 462.12L966.586 461.967Z" fill="white"/>
<path d="M999.202 631.571C992.716 630.35 985.427 634.472 984.095 641.548C982.762 648.623 988.052 655.115 994.538 656.336C1000.83 657.521 1008.12 653.398 1009.45 646.323C1010.78 639.247 1005.49 632.756 999.202 631.571Z" fill="white"/>
<path d="M895.342 831.846C890.906 826.959 882.607 825.848 877.275 830.687C871.943 835.526 872.245 843.894 876.68 848.781C880.981 853.521 889.281 854.631 894.613 849.793C899.945 844.954 899.643 836.586 895.342 831.846Z" fill="white"/>
<path d="M691.679 928.895C691.09 922.321 685.142 916.428 677.97 917.07C670.799 917.711 665.991 924.567 666.579 931.141C667.149 937.515 673.098 943.409 680.269 942.767C687.441 942.125 692.249 935.27 691.679 928.895Z" fill="white"/>
</svg>
