<svg width="428" height="418" viewBox="0 0 428 418" fill="none" xmlns="http://www.w3.org/2000/svg">
<path d="M41.9652 87.5723L34.4131 95.7945L37.7746 105.379L29.503 99.0699L18.8187 103.013L26.3708 94.7904L23.0094 85.2055L31.281 91.515L41.9652 87.5723Z" fill="white"/>
<path d="M404.43 368.629C399.251 374.801 389.11 376.687 374.672 374.293C360.311 371.912 342.059 365.349 321.134 355.16C279.3 334.789 226.994 300.025 174.154 255.686C121.313 211.348 77.9944 165.873 50.6684 128.212C37.0007 109.375 27.3684 92.5396 22.5296 78.8099C17.665 65.0069 17.7609 54.6931 22.9402 48.5206C28.1195 42.3481 38.2601 40.4626 52.6981 42.8565C67.0594 45.2376 85.312 51.8002 106.236 61.9892C148.07 82.3602 200.376 117.124 253.217 161.463C306.057 205.801 349.376 251.276 376.702 288.937C390.37 307.774 400.002 324.61 404.841 338.339C409.706 352.142 409.61 362.456 404.43 368.629Z" stroke="white" stroke-width="2"/>
<path d="M374.318 312.052L369.786 316.986L371.803 322.736L366.84 318.951L360.43 321.316L364.961 316.383L362.944 310.632L367.907 314.418L374.318 312.052Z" fill="white"/>
<path d="M366.128 336.989C362.058 341.839 354.046 343.364 342.508 341.451C331.046 339.551 316.464 334.31 299.732 326.163C266.284 309.875 224.453 282.074 182.189 246.61C139.925 211.147 105.283 174.779 83.4339 144.667C72.5049 129.604 64.8114 116.154 60.9495 105.196C57.0618 94.1648 57.1727 86.0098 61.2426 81.1594C65.3126 76.309 73.3245 74.7837 84.863 76.6968C96.3249 78.5972 110.907 83.8381 127.639 91.9855C161.087 108.273 202.918 136.074 245.182 171.538C287.446 207.001 322.088 243.369 343.937 273.481C354.866 288.544 362.56 301.995 366.421 312.952C370.309 323.983 370.198 332.138 366.128 336.989Z" stroke="white" stroke-width="2"/>
</svg>
