<svg width="1142" height="576" viewBox="0 0 1142 576" fill="none" xmlns="http://www.w3.org/2000/svg">
<path d="M1046.5 75L1051.27 96.2724L1069 102L1051.27 107.728L1046.5 129L1041.73 107.728L1024 102L1041.73 96.2724L1046.5 75Z" fill="white"/>
<path d="M1101.29 145.909C1106.52 165.402 1097.06 188.093 1074.88 212.562C1052.74 236.992 1018.12 262.966 973.605 288.931C884.588 340.855 756.207 392.63 609.564 431.923C462.921 471.216 325.852 490.568 222.799 490.109C171.266 489.88 128.297 484.696 96.9073 474.609C65.4668 464.507 45.93 449.585 40.7068 430.092C35.4835 410.599 44.9423 387.908 67.1192 363.438C89.2602 339.008 123.88 313.035 168.395 287.069C257.412 235.145 385.793 183.37 532.436 144.077C679.079 104.785 816.148 85.4326 919.201 85.8914C970.734 86.1209 1013.7 91.3047 1045.09 101.391C1076.53 111.494 1096.07 126.415 1101.29 145.909Z" stroke="white" stroke-width="2"/>
<path d="M197 430L200.182 444.182L212 448L200.182 451.818L197 466L193.818 451.818L182 448L193.818 444.182L197 430Z" fill="white"/>
<path d="M1012.75 169.634C1017.08 185.793 1009.25 204.643 990.777 225.023C972.343 245.364 943.509 266.998 906.42 288.632C832.256 331.892 725.286 375.034 603.094 407.775C480.901 440.516 366.692 456.64 280.834 456.258C237.897 456.066 202.109 451.747 175.974 443.349C149.788 434.935 133.58 422.526 129.25 406.367C124.92 390.207 132.752 371.357 151.223 350.977C169.657 330.637 198.491 309.002 235.58 287.368C309.744 244.108 416.714 200.967 538.906 168.225C661.099 135.484 775.308 119.36 861.166 119.743C904.103 119.934 939.891 124.253 966.026 132.651C992.212 141.066 1008.42 153.474 1012.75 169.634Z" stroke="white" stroke-width="2"/>
<path d="M924.207 193.359C927.643 206.184 921.438 221.194 906.674 237.484C891.945 253.735 868.898 271.031 839.235 288.333C779.923 322.93 694.365 357.437 596.623 383.627C498.881 409.817 407.532 422.712 338.868 422.406C304.528 422.253 275.921 418.799 255.04 412.089C234.109 405.363 221.23 395.467 217.793 382.642C214.357 369.817 220.562 354.807 235.326 338.516C250.055 322.265 273.102 304.97 302.765 287.668C362.077 253.07 447.635 218.564 545.377 192.374C643.119 166.184 734.468 153.289 803.132 153.594C837.472 153.747 866.079 157.202 886.96 163.912C907.891 170.638 920.77 180.534 924.207 193.359Z" stroke="white" stroke-width="2"/>
<path d="M878.5 253L880.091 260.091L886 262L880.091 263.909L878.5 271L876.909 263.909L871 262L876.909 260.091L878.5 253Z" fill="white"/>
</svg>
