<svg width="130" height="175" viewBox="0 0 130 175" fill="none" xmlns="http://www.w3.org/2000/svg">
<path d="M109.022 34.3225L109.065 34.5884L109.31 34.6989L128.782 43.4628L109.31 52.2267L109.065 52.3373L109.022 52.6032L104 83.7814L98.9782 52.6032L98.9354 52.3373L98.6898 52.2267L79.2182 43.4628L98.6898 34.6989L98.9354 34.5884L98.9782 34.3225L104 3.14429L109.022 34.3225Z" stroke="black"/>
<path d="M93.2641 148.238L93.3069 148.504L93.5525 148.615L102.782 152.769L93.5525 156.923L93.3069 157.033L93.2641 157.299L91 171.356L88.7359 157.299L88.6931 157.033L88.4475 156.923L79.2182 152.769L88.4475 148.615L88.6931 148.504L88.7359 148.238L91 134.181L93.2641 148.238Z" stroke="black"/>
<path d="M46.7795 73.5737L46.8222 73.8395L47.0677 73.9501L76.7832 87.3441L47.0677 100.738L46.8222 100.849L46.7795 101.114L39 149.484L31.2205 101.114L31.1778 100.849L30.9323 100.738L1.21677 87.3441L30.9323 73.9501L31.1778 73.8395L31.2205 73.5737L39 25.2044L46.7795 73.5737Z" stroke="black"/>
</svg>
