<svg width="80" height="103" viewBox="0 0 80 103" fill="none" xmlns="http://www.w3.org/2000/svg">
<mask id="path-1-inside-1_245_2" fill="white">
<path fill-rule="evenodd" clip-rule="evenodd" d="M47.9881 38.145L40 0L32.0066 38.1701L19.7725 31.1265L26.2328 42.3474L0 51.4286L26.1377 60.4768L19.7725 71.5326L31.9696 64.5103L40 102.857L48.0252 64.5354L60.1786 71.5326L53.8215 60.4909L80 51.4286L53.7265 42.3333L60.1786 31.1265L47.9881 38.145Z"/>
</mask>
<path d="M40 0L40.9788 -0.204969L39.0212 -0.204969L40 0ZM47.9881 38.145L47.0094 38.3499L47.292 39.6996L48.4871 39.0116L47.9881 38.145ZM32.0066 38.1701L31.5076 39.0367L32.7027 39.7248L32.9854 38.3751L32.0066 38.1701ZM19.7725 31.1265L20.2715 30.2598L17.0528 28.4067L18.9059 31.6254L19.7725 31.1265ZM26.2328 42.3474L26.5599 43.2924L27.7029 42.8967L27.0994 41.8484L26.2328 42.3474ZM0 51.4286L-0.32713 50.4836L-3.05689 51.4286L-0.32713 52.3736L0 51.4286ZM26.1377 60.4768L27.0043 60.9758L27.6079 59.9275L26.4648 59.5319L26.1377 60.4768ZM19.7725 71.5326L18.9059 71.0336L17.0528 74.2523L20.2715 72.3992L19.7725 71.5326ZM31.9696 64.5103L32.9484 64.3053L32.6657 62.9556L31.4706 63.6437L31.9696 64.5103ZM40 102.857L39.0212 103.062L40.9788 103.062L40 102.857ZM48.0252 64.5354L48.5241 63.6688L47.329 62.9807L47.0464 64.3304L48.0252 64.5354ZM60.1786 71.5326L59.6797 72.3992L62.8984 74.2523L61.0453 71.0336L60.1786 71.5326ZM53.8215 60.4909L53.4944 59.546L52.3514 59.9416L52.9549 60.9899L53.8215 60.4909ZM80 51.4286L80.3271 52.3736L83.0569 51.4286L80.3271 50.4836L80 51.4286ZM53.7265 42.3333L52.8598 41.8343L52.2563 42.8826L53.3993 43.2783L53.7265 42.3333ZM60.1786 31.1265L61.0453 31.6254L62.8984 28.4067L59.6797 30.2598L60.1786 31.1265ZM39.0212 0.204969L47.0094 38.3499L48.9669 37.94L40.9788 -0.204969L39.0212 0.204969ZM32.9854 38.3751L40.9788 0.204969L39.0212 -0.204969L31.0278 37.9651L32.9854 38.3751ZM19.2736 31.9931L31.5076 39.0367L32.5055 37.3035L20.2715 30.2598L19.2736 31.9931ZM27.0994 41.8484L20.6391 30.6275L18.9059 31.6254L25.3662 42.8463L27.0994 41.8484ZM0.32713 52.3736L26.5599 43.2924L25.9057 41.4024L-0.32713 50.4836L0.32713 52.3736ZM26.4648 59.5319L0.32713 50.4836L-0.32713 52.3736L25.8106 61.4218L26.4648 59.5319ZM20.6391 72.0315L27.0043 60.9758L25.2711 59.9779L18.9059 71.0336L20.6391 72.0315ZM31.4706 63.6437L19.2736 70.666L20.2715 72.3992L32.4685 65.3769L31.4706 63.6437ZM40.9788 102.652L32.9484 64.3053L30.9908 64.7153L39.0212 103.062L40.9788 102.652ZM47.0464 64.3304L39.0212 102.652L40.9788 103.062L49.0039 64.7404L47.0464 64.3304ZM60.6776 70.666L48.5241 63.6688L47.5262 65.402L59.6797 72.3992L60.6776 70.666ZM52.9549 60.9899L59.312 72.0315L61.0453 71.0336L54.6882 59.992L52.9549 60.9899ZM79.6729 50.4836L53.4944 59.546L54.1487 61.4359L80.3271 52.3736L79.6729 50.4836ZM53.3993 43.2783L79.6729 52.3736L80.3271 50.4836L54.0536 41.3883L53.3993 43.2783ZM59.312 30.6275L52.8598 41.8343L54.5931 42.8322L61.0453 31.6254L59.312 30.6275ZM48.4871 39.0116L60.6776 31.9931L59.6797 30.2598L47.4892 37.2783L48.4871 39.0116Z" fill="white" mask="url(#path-1-inside-1_245_2)"/>
</svg>
