<svg width="132" height="155" viewBox="0 0 132 155" fill="none" xmlns="http://www.w3.org/2000/svg">
<path d="M46.1735 50.5035L46.2166 50.7697L46.4628 50.8799L75.7761 64L46.4628 77.1201L46.2166 77.2303L46.1735 77.4965L38.5 124.873L30.8265 77.4965L30.7834 77.2303L30.5372 77.1201L1.22391 64L30.5372 50.8799L30.7834 50.7697L30.8265 50.5035L38.5 3.12723L46.1735 50.5035Z" stroke="black"/>
<path d="M109.84 99.3214L109.883 99.5872L110.128 99.6978L130.782 109L110.128 118.302L109.883 118.413L109.84 118.679L104.5 151.854L99.16 118.679L99.1172 118.413L98.8717 118.302L78.2176 109L98.8717 99.6978L99.1172 99.5872L99.16 99.3214L104.5 66.1463L109.84 99.3214Z" stroke="black"/>
</svg>
