<svg width="85" height="101" viewBox="0 0 85 101" fill="none" xmlns="http://www.w3.org/2000/svg">
<path d="M64.8098 50.5628L64.8534 50.8296L65.1004 50.9393L83.7679 59.2281L65.1004 67.5169L64.8534 67.6266L64.8098 67.8933L60 97.3531L55.1902 67.8933L55.1466 67.6266L54.8996 67.5169L36.2321 59.2281L54.8996 50.9393L55.1466 50.8296L55.1902 50.5628L60 21.103L64.8098 50.5628Z" stroke="black"/>
<path d="M20.7186 23.1737L20.7614 23.4395L21.0068 23.5502L33.7838 29.3125L21.0068 35.0748L20.7614 35.1855L20.7186 35.4513L17.5 55.4746L14.2814 35.4513L14.2386 35.1855L13.9932 35.0748L1.2162 29.3125L13.9932 23.5502L14.2386 23.4395L14.2814 23.1737L17.5 3.15044L20.7186 23.1737Z" stroke="black"/>
</svg>
